#usda 1.0
(
    defaultPrim = "sadang_317_6"
    metersPerUnit = 1
    upAxis = "Y"
)

def Xform "sadang_317_6" (
    kind = "component"
    assetInfo = {
        string name = "서울특별시 동작구 사당동 317-6 행복이가득한집"
        string identifier = "sadang_317_6"
    }
    customData = {
        string nvidiaWorkflow = "OpenUSD -> Omniverse RTX/ovrtx -> SimReady validation candidate"
        string geocodeProvider = "vworld"
        string sourceManifestProject = "sadang_317_6"
        string address = "서울특별시 동작구 사당동 317-6 행복이가득한집"
        string roadAddress = "서울특별시 동작구 사당로20가길 39"
        string anchorSource = "official_parcel_centroid"
        double anchorLongitude = 126.973407
        double anchorLatitude = 37.482347
    }
)
{
    def Scope "Looks"
    {
        def Material "Terrain_DrapedPreviewImagery"
        {
            token outputs:surface.connect = </sadang_317_6/Looks/Terrain_DrapedPreviewImagery/PreviewSurface.outputs:surface>
            def Shader "PreviewSurface"
            {
                uniform token info:id = "UsdPreviewSurface"
                color3f inputs:diffuseColor = (0.24, 0.32, 0.28)
                float inputs:roughness = 0.96
                float inputs:metallic = 0
                token outputs:surface
            }
        }
        def Material "Official_Target_Building_Teal"
        {
            token outputs:surface.connect = </sadang_317_6/Looks/Official_Target_Building_Teal/PreviewSurface.outputs:surface>
            def Shader "PreviewSurface"
            {
                uniform token info:id = "UsdPreviewSurface"
                color3f inputs:diffuseColor = (0.08, 0.72, 0.65)
                float inputs:roughness = 0.35
                float inputs:metallic = 0.1
                token outputs:surface
            }
        }
        def Material "Official_Context_Building_Concrete"
        {
            token outputs:surface.connect = </sadang_317_6/Looks/Official_Context_Building_Concrete/PreviewSurface.outputs:surface>
            def Shader "PreviewSurface"
            {
                uniform token info:id = "UsdPreviewSurface"
                color3f inputs:diffuseColor = (0.72, 0.76, 0.8)
                float inputs:roughness = 0.62
                float inputs:metallic = 0
                token outputs:surface
            }
        }
        def Material "Official_Road_Asphalt"
        {
            token outputs:surface.connect = </sadang_317_6/Looks/Official_Road_Asphalt/PreviewSurface.outputs:surface>
            def Shader "PreviewSurface"
            {
                uniform token info:id = "UsdPreviewSurface"
                color3f inputs:diffuseColor = (0.08, 0.1, 0.13)
                float inputs:roughness = 0.9
                float inputs:metallic = 0
                token outputs:surface
            }
        }
        def Material "Official_Parcel_Boundary_Gold"
        {
            token outputs:surface.connect = </sadang_317_6/Looks/Official_Parcel_Boundary_Gold/PreviewSurface.outputs:surface>
            def Shader "PreviewSurface"
            {
                uniform token info:id = "UsdPreviewSurface"
                color3f inputs:diffuseColor = (1, 0.72, 0.16)
                float inputs:roughness = 0.5
                float inputs:metallic = 0
                token outputs:surface
            }
        }
        def Material "GPU_Flood_Water_Hazard"
        {
            token outputs:surface.connect = </sadang_317_6/Looks/GPU_Flood_Water_Hazard/PreviewSurface.outputs:surface>
            def Shader "PreviewSurface"
            {
                uniform token info:id = "UsdPreviewSurface"
                color3f inputs:diffuseColor = (0.05, 0.56, 0.74)
                float inputs:roughness = 0.08
                float inputs:metallic = 0
                float inputs:opacity = 0.58
                token outputs:surface
            }
        }
    }
    def Scope "NVIDIA_Pipeline_Metadata" (
        customData = {
            string openUsdRole = "canonical interchange layer for NVIDIA Omniverse"
            string simReadyRole = "candidate prop/site package; Content Agents and Asset Validator gates are external runtime steps"
            string viewerRole = "open with Omniverse/ovrtx, not browser-side WebGL"
            int officialBuildingCount = 17
            int officialRoadCount = 8
            string sourceLayers = "satellite_ground:medium; spatial_reference:high; target_building_massing:high; surrounding_context_massing:medium; parcel_boundary:high; road_hints:medium"
        }
    )
    {
    }
    def PhysicsScene "PhysicsScene"
    {
        vector3f physics:gravityDirection = (0, -1, 0)
        float physics:gravityMagnitude = 9.81
    }
    def Xform "Geometry"
    {
        def Mesh "Terrain_DrapedPreviewSurface" (
            prepend apiSchemas = ["MaterialBindingAPI", "PhysicsCollisionAPI"]
            customData = {
                string source = "live basemap/DEM preview surface"
                string note = "Satellite tiles are not cached in this package; Omniverse material should be replaced by licensed imagery/terrain layer at deployment."
            }
        )
        {
            rel material:binding = </sadang_317_6/Looks/Terrain_DrapedPreviewImagery>
            bool physics:collisionEnabled = true
            point3f[] points = [(-220, -0.04, -220), (220, -0.04, -220), (220, -0.04, 220), (-220, -0.04, 220)]
            int[] faceVertexCounts = [4]
            int[] faceVertexIndices = [0, 1, 2, 3]
            uniform token subdivisionScheme = "none"
        }
        def Mesh "target_vworld_target_lt_c_bldginfo_15621631" (
            prepend apiSchemas = ["MaterialBindingAPI", "PhysicsCollisionAPI"]
            customData = {
                string sourceType = "official"
                string confidence = "high"
                string displayName = "행복이가득한집"
                string role = "target"
                int heightM = 16
                int floorsEstimate = 5
            }
        )
        {
            rel material:binding = </sadang_317_6/Looks/Official_Target_Building_Teal>
            bool physics:collisionEnabled = true
            point3f[] points = [
                (-0.945813, 0, 6.517415),
                (7.564533, 0, -0.060457),
                (1.992262, 0, -6.052784),
                (-0.747056, 0, -3.893187),
                (-2.213443, 0, -5.513998),
                (-7.447385, 0, -1.095728),
                (-0.945813, 16, 6.517415),
                (7.564533, 16, -0.060457),
                (1.992262, 16, -6.052784),
                (-0.747056, 16, -3.893187),
                (-2.213443, 16, -5.513998),
                (-7.447385, 16, -1.095728)
            ]
            int[] faceVertexCounts = [3, 3, 3, 3, 3, 3, 3, 3, 4, 4, 4, 4, 4, 4]
            int[] faceVertexIndices = [10, 11, 6, 6, 7, 8, 9, 10, 6, 6, 8, 9, 0, 5, 4, 2, 1, 0, 0, 4, 3, 3, 2, 0, 0, 1, 7, 6, 1, 2, 8, 7, 2, 3, 9, 8, 3, 4, 10, 9, 4, 5, 11, 10, 5, 0, 6, 11]
            uniform token subdivisionScheme = "none"
        }
        def Mesh "surrounding_vworld_context_1" (
            prepend apiSchemas = ["MaterialBindingAPI", "PhysicsCollisionAPI"]
            customData = {
                string sourceType = "official"
                string confidence = "medium"
                string displayName = "VWorld 주변 건물 1"
                string role = "surrounding"
                double heightM = 6.4
                int floorsEstimate = 2
            }
        )
        {
            rel material:binding = </sadang_317_6/Looks/Official_Context_Building_Concrete>
            bool physics:collisionEnabled = true
            point3f[] points = [
                (-11.374829, 0, -4.792648),
                (-22.208427, 0, 4.764132),
                (-17.013353, 0, 10.596166),
                (-8.303367, 0, 3.106583),
                (-8.708831, 0, 2.574476),
                (-6.382929, 0, 0.694289),
                (-11.374829, 6.4, -4.792648),
                (-22.208427, 6.4, 4.764132),
                (-17.013353, 6.4, 10.596166),
                (-8.303367, 6.4, 3.106583),
                (-8.708831, 6.4, 2.574476),
                (-6.382929, 6.4, 0.694289)
            ]
            int[] faceVertexCounts = [3, 3, 3, 3, 3, 3, 3, 3, 4, 4, 4, 4, 4, 4]
            int[] faceVertexIndices = [10, 11, 6, 6, 7, 8, 8, 9, 10, 10, 6, 8, 0, 5, 4, 2, 1, 0, 4, 3, 2, 2, 0, 4, 0, 1, 7, 6, 1, 2, 8, 7, 2, 3, 9, 8, 3, 4, 10, 9, 4, 5, 11, 10, 5, 0, 6, 11]
            uniform token subdivisionScheme = "none"
        }
        def Mesh "surrounding_vworld_context_2" (
            prepend apiSchemas = ["MaterialBindingAPI", "PhysicsCollisionAPI"]
            customData = {
                string sourceType = "official"
                string confidence = "medium"
                string displayName = "VWorld 주변 건물 2"
                string role = "surrounding"
                double heightM = 12.8
                int floorsEstimate = 4
            }
        )
        {
            rel material:binding = </sadang_317_6/Looks/Official_Context_Building_Concrete>
            bool physics:collisionEnabled = true
            point3f[] points = [
                (-9.365172, 0, 5.112562),
                (-16.030167, 0, 11.5691),
                (-15.937414, 0, 11.913078),
                (-11.708742, 0, 16.207791),
                (-11.162822, 0, 16.333583),
                (-10.38281, 0, 16.333583),
                (-9.555096, 0, 16.238961),
                (-9.149631, 0, 15.957322),
                (-1.954617, 0, 10.851088),
                (-6.727442, 0, 5.176014),
                (-8.085175, 0, 6.491812),
                (-9.365172, 12.8, 5.112562),
                (-16.030167, 12.8, 11.5691),
                (-15.937414, 12.8, 11.913078),
                (-11.708742, 12.8, 16.207791),
                (-11.162822, 12.8, 16.333583),
                (-10.38281, 12.8, 16.333583),
                (-9.555096, 12.8, 16.238961),
                (-9.149631, 12.8, 15.957322),
                (-1.954617, 12.8, 10.851088),
                (-6.727442, 12.8, 5.176014),
                (-8.085175, 12.8, 6.491812)
            ]
            int[] faceVertexCounts = [3, 3, 3, 3, 3, 3, 3, 3, 3, 3, 3, 3, 3, 3, 3, 3, 3, 3, 4, 4, 4, 4, 4, 4, 4, 4, 4, 4, 4]
            int[] faceVertexIndices = [21, 11, 12, 12, 13, 14, 14, 15, 16, 16, 17, 18, 18, 19, 20, 21, 12, 14, 14, 16, 18, 18, 20, 21, 21, 14, 18, 1, 0, 10, 3, 2, 1, 5, 4, 3, 7, 6, 5, 9, 8, 7, 3, 1, 10, 7, 5, 3, 10, 9, 7, 7, 3, 10, 0, 1, 12, 11, 1, 2, 13, 12, 2, 3, 14, 13, 3, 4, 15, 14, 4, 5, 16, 15, 5, 6, 17, 16, 6, 7, 18, 17, 7, 8, 19, 18, 8, 9, 20, 19, 9, 10, 21, 20, 10, 0, 11, 21]
            uniform token subdivisionScheme = "none"
        }
        def Mesh "surrounding_vworld_context_3" (
            prepend apiSchemas = ["MaterialBindingAPI", "PhysicsCollisionAPI"]
            customData = {
                string sourceType = "official"
                string confidence = "medium"
                string displayName = "VWorld 주변 건물 3"
                string role = "surrounding"
                double heightM = 12.8
                int floorsEstimate = 4
            }
        )
        {
            rel material:binding = </sadang_317_6/Looks/Official_Context_Building_Concrete>
            bool physics:collisionEnabled = true
            point3f[] points = [
                (-24.082046, 0, 1.110624),
                (-13.869454, 0, -7.581199),
                (-11.4826, 0, -4.836062),
                (-8.062208, 0, -7.714783),
                (-14.329688, 0, -15.129765),
                (-19.160815, 0, -11.197966),
                (-20.697872, 0, -12.328971),
                (-27.640243, 0, -3.237515),
                (-24.082046, 12.8, 1.110624),
                (-13.869454, 12.8, -7.581199),
                (-11.4826, 12.8, -4.836062),
                (-8.062208, 12.8, -7.714783),
                (-14.329688, 12.8, -15.129765),
                (-19.160815, 12.8, -11.197966),
                (-20.697872, 12.8, -12.328971),
                (-27.640243, 12.8, -3.237515)
            ]
            int[] faceVertexCounts = [3, 3, 3, 3, 3, 3, 3, 3, 3, 3, 3, 3, 4, 4, 4, 4, 4, 4, 4, 4]
            int[] faceVertexIndices = [14, 15, 8, 9, 10, 11, 11, 12, 13, 13, 14, 8, 9, 11, 13, 13, 8, 9, 0, 7, 6, 3, 2, 1, 5, 4, 3, 0, 6, 5, 5, 3, 1, 1, 0, 5, 0, 1, 9, 8, 1, 2, 10, 9, 2, 3, 11, 10, 3, 4, 12, 11, 4, 5, 13, 12, 5, 6, 14, 13, 6, 7, 15, 14, 7, 0, 8, 15]
            uniform token subdivisionScheme = "none"
        }
        def Mesh "surrounding_vworld_context_4" (
            prepend apiSchemas = ["MaterialBindingAPI", "PhysicsCollisionAPI"]
            customData = {
                string sourceType = "official"
                string confidence = "medium"
                string displayName = "VWorld 주변 건물 4"
                string role = "surrounding"
                double heightM = 9.6
                int floorsEstimate = 3
            }
        )
        {
            rel material:binding = </sadang_317_6/Looks/Official_Context_Building_Concrete>
            bool physics:collisionEnabled = true
            point3f[] points = [
                (14.188893, 0, 21.594555),
                (11.02556, 0, 16.93137),
                (7.285389, 0, 18.813787),
                (6.965611, 0, 18.29281),
                (5.727132, 0, 19.084294),
                (2.39331, 0, 14.72056),
                (-8.116093, 0, 22.055419),
                (-1.004998, 0, 32.077546),
                (14.188893, 9.6, 21.594555),
                (11.02556, 9.6, 16.93137),
                (7.285389, 9.6, 18.813787),
                (6.965611, 9.6, 18.29281),
                (5.727132, 9.6, 19.084294),
                (2.39331, 9.6, 14.72056),
                (-8.116093, 9.6, 22.055419),
                (-1.004998, 9.6, 32.077546)
            ]
            int[] faceVertexCounts = [3, 3, 3, 3, 3, 3, 3, 3, 3, 3, 3, 3, 4, 4, 4, 4, 4, 4, 4, 4]
            int[] faceVertexIndices = [14, 15, 8, 8, 9, 10, 10, 11, 12, 12, 13, 14, 14, 8, 10, 10, 12, 14, 0, 7, 6, 2, 1, 0, 4, 3, 2, 6, 5, 4, 2, 0, 6, 6, 4, 2, 0, 1, 9, 8, 1, 2, 10, 9, 2, 3, 11, 10, 3, 4, 12, 11, 4, 5, 13, 12, 5, 6, 14, 13, 6, 7, 15, 14, 7, 0, 8, 15]
            uniform token subdivisionScheme = "none"
        }
        def Mesh "surrounding_vworld_context_5" (
            prepend apiSchemas = ["MaterialBindingAPI", "PhysicsCollisionAPI"]
            customData = {
                string sourceType = "official"
                string confidence = "medium"
                string displayName = "VWorld 주변 건물 5"
                string role = "surrounding"
                double heightM = 6.4
                int floorsEstimate = 2
            }
        )
        {
            rel material:binding = </sadang_317_6/Looks/Official_Context_Building_Concrete>
            bool physics:collisionEnabled = true
            point3f[] points = [
                (32.467498, 0, 7.82876),
                (28.18494, 0, 0.696516),
                (24.708896, 0, 3.001943),
                (23.928001, 0, 1.863144),
                (20.610079, 0, 4.371174),
                (25.518942, 0, 12.027737),
                (32.467498, 6.4, 7.82876),
                (28.18494, 6.4, 0.696516),
                (24.708896, 6.4, 3.001943),
                (23.928001, 6.4, 1.863144),
                (20.610079, 6.4, 4.371174),
                (25.518942, 6.4, 12.027737)
            ]
            int[] faceVertexCounts = [3, 3, 3, 3, 3, 3, 3, 3, 4, 4, 4, 4, 4, 4]
            int[] faceVertexIndices = [10, 11, 6, 6, 7, 8, 8, 9, 10, 10, 6, 8, 0, 5, 4, 2, 1, 0, 4, 3, 2, 2, 0, 4, 0, 1, 7, 6, 1, 2, 8, 7, 2, 3, 9, 8, 3, 4, 10, 9, 4, 5, 11, 10, 5, 0, 6, 11]
            uniform token subdivisionScheme = "none"
        }
        def Mesh "surrounding_vworld_context_6" (
            prepend apiSchemas = ["MaterialBindingAPI", "PhysicsCollisionAPI"]
            customData = {
                string sourceType = "official"
                string confidence = "medium"
                string displayName = "경남빌딩"
                string role = "surrounding"
                double heightM = 12.8
                int floorsEstimate = 4
            }
        )
        {
            rel material:binding = </sadang_317_6/Looks/Official_Context_Building_Concrete>
            bool physics:collisionEnabled = true
            point3f[] points = [
                (-29.92021, 0, -3.929922),
                (-24.737503, 0, -8.430566),
                (-25.874395, 0, -9.816493),
                (-21.892182, 0, -13.275185),
                (-21.586538, 0, -13.540125),
                (-15.523998, 0, -18.804414),
                (-13.986059, 0, -20.053416),
                (-19.518578, 0, -26.592306),
                (-27.509505, 0, -19.652667),
                (-28.391104, 0, -18.887904),
                (-28.930841, 0, -18.41925),
                (-34.722187, 0, -13.389844),
                (-35.25309, 0, -10.100357),
                (-29.92021, 12.8, -3.929922),
                (-24.737503, 12.8, -8.430566),
                (-25.874395, 12.8, -9.816493),
                (-21.892182, 12.8, -13.275185),
                (-21.586538, 12.8, -13.540125),
                (-15.523998, 12.8, -18.804414),
                (-13.986059, 12.8, -20.053416),
                (-19.518578, 12.8, -26.592306),
                (-27.509505, 12.8, -19.652667),
                (-28.391104, 12.8, -18.887904),
                (-28.930841, 12.8, -18.41925),
                (-34.722187, 12.8, -13.389844),
                (-35.25309, 12.8, -10.100357)
            ]
            int[] faceVertexCounts = [3, 3, 3, 3, 3, 3, 3, 3, 3, 3, 3, 3, 3, 3, 3, 3, 3, 3, 3, 3, 3, 3, 4, 4, 4, 4, 4, 4, 4, 4, 4, 4, 4, 4, 4]
            int[] faceVertexIndices = [24, 25, 13, 13, 14, 15, 16, 17, 18, 18, 19, 20, 21, 22, 23, 23, 24, 13, 16, 18, 20, 21, 23, 13, 15, 16, 20, 20, 21, 13, 13, 15, 20, 0, 12, 11, 2, 1, 0, 5, 4, 3, 7, 6, 5, 10, 9, 8, 0, 11, 10, 7, 5, 3, 0, 10, 8, 7, 3, 2, 0, 8, 7, 7, 2, 0, 0, 1, 14, 13, 1, 2, 15, 14, 2, 3, 16, 15, 3, 4, 17, 16, 4, 5, 18, 17, 5, 6, 19, 18, 6, 7, 20, 19, 7, 8, 21, 20, 8, 9, 22, 21, 9, 10, 23, 22, 10, 11, 24, 23, 11, 12, 25, 24, 12, 0, 13, 25]
            uniform token subdivisionScheme = "none"
        }
        def Mesh "surrounding_vworld_context_7" (
            prepend apiSchemas = ["MaterialBindingAPI", "PhysicsCollisionAPI"]
            customData = {
                string sourceType = "official"
                string confidence = "medium"
                string displayName = "VWorld 주변 건물 7"
                string role = "surrounding"
                int heightM = 14
                int floorsEstimate = 4
            }
        )
        {
            rel material:binding = </sadang_317_6/Looks/Official_Context_Building_Concrete>
            bool physics:collisionEnabled = true
            point3f[] points = [
                (21.152465, 0, -12.849945),
                (24.89617, 0, -8.467302),
                (27.18762, 0, -7.97861),
                (30.959592, 0, -11.226909),
                (32.130052, 0, -9.856568),
                (34.646761, 0, -12.025069),
                (29.965806, 0, -17.506432),
                (30.496709, 0, -17.963954),
                (29.053289, 0, -19.652667),
                (21.152465, 14, -12.849945),
                (24.89617, 14, -8.467302),
                (27.18762, 14, -7.97861),
                (30.959592, 14, -11.226909),
                (32.130052, 14, -9.856568),
                (34.646761, 14, -12.025069),
                (29.965806, 14, -17.506432),
                (30.496709, 14, -17.963954),
                (29.053289, 14, -19.652667)
            ]
            int[] faceVertexCounts = [3, 3, 3, 3, 3, 3, 3, 3, 3, 3, 3, 3, 3, 3, 4, 4, 4, 4, 4, 4, 4, 4, 4]
            int[] faceVertexIndices = [16, 17, 9, 9, 10, 11, 12, 13, 14, 15, 16, 9, 9, 11, 12, 12, 14, 15, 15, 9, 12, 0, 8, 7, 2, 1, 0, 5, 4, 3, 0, 7, 6, 3, 2, 0, 6, 5, 3, 3, 0, 6, 0, 1, 10, 9, 1, 2, 11, 10, 2, 3, 12, 11, 3, 4, 13, 12, 4, 5, 14, 13, 5, 6, 15, 14, 6, 7, 16, 15, 7, 8, 17, 16, 8, 0, 9, 17]
            uniform token subdivisionScheme = "none"
        }
        def Mesh "surrounding_vworld_context_8" (
            prepend apiSchemas = ["MaterialBindingAPI", "PhysicsCollisionAPI"]
            customData = {
                string sourceType = "official"
                string confidence = "medium"
                string displayName = "VWorld 주변 건물 8"
                string role = "surrounding"
                double heightM = 12.8
                int floorsEstimate = 4
            }
        )
        {
            rel material:binding = </sadang_317_6/Looks/Official_Context_Building_Concrete>
            bool physics:collisionEnabled = true
            point3f[] points = [
                (35.749202, 0, -13.424353),
                (30.211381, 0, -19.456745),
                (21.528779, 0, -11.78128),
                (24.315798, 0, -8.667677),
                (26.777739, 0, -8.361548),
                (32.105318, 0, -12.739739),
                (33.485135, 0, -11.242494),
                (35.749202, 12.8, -13.424353),
                (30.211381, 12.8, -19.456745),
                (21.528779, 12.8, -11.78128),
                (24.315798, 12.8, -8.667677),
                (26.777739, 12.8, -8.361548),
                (32.105318, 12.8, -12.739739),
                (33.485135, 12.8, -11.242494)
            ]
            int[] faceVertexCounts = [3, 3, 3, 3, 3, 3, 3, 3, 3, 3, 4, 4, 4, 4, 4, 4, 4]
            int[] faceVertexIndices = [12, 13, 7, 7, 8, 9, 9, 10, 11, 12, 7, 9, 9, 11, 12, 0, 6, 5, 2, 1, 0, 4, 3, 2, 2, 0, 5, 5, 4, 2, 0, 1, 8, 7, 1, 2, 9, 8, 2, 3, 10, 9, 3, 4, 11, 10, 4, 5, 12, 11, 5, 6, 13, 12, 6, 0, 7, 13]
            uniform token subdivisionScheme = "none"
        }
        def Mesh "surrounding_vworld_context_9" (
            prepend apiSchemas = ["MaterialBindingAPI", "PhysicsCollisionAPI"]
            customData = {
                string sourceType = "official"
                string confidence = "medium"
                string displayName = "VWorld 주변 건물 9"
                string role = "surrounding"
                double heightM = 6.4
                int floorsEstimate = 2
            }
        )
        {
            rel material:binding = </sadang_317_6/Looks/Official_Context_Building_Concrete>
            bool physics:collisionEnabled = true
            point3f[] points = [
                (15.722416, 0, 27.62475),
                (11.040577, 0, 30.382144),
                (9.8392, 0, 28.719025),
                (0.818269, 0, 34.202644),
                (0.818269, 0, 34.484284),
                (6.387006, 0, 42.854436),
                (18.357496, 0, 35.743313),
                (22.509315, 0, 33.612648),
                (19.094223, 0, 28.409555),
                (16.720619, 0, 29.661904),
                (15.722416, 6.4, 27.62475),
                (11.040577, 6.4, 30.382144),
                (9.8392, 6.4, 28.719025),
                (0.818269, 6.4, 34.202644),
                (0.818269, 6.4, 34.484284),
                (6.387006, 6.4, 42.854436),
                (18.357496, 6.4, 35.743313),
                (22.509315, 6.4, 33.612648),
                (19.094223, 6.4, 28.409555),
                (16.720619, 6.4, 29.661904)
            ]
            int[] faceVertexCounts = [3, 3, 3, 3, 3, 3, 3, 3, 3, 3, 3, 3, 3, 3, 3, 3, 4, 4, 4, 4, 4, 4, 4, 4, 4, 4]
            int[] faceVertexIndices = [19, 10, 11, 11, 12, 13, 13, 14, 15, 16, 17, 18, 19, 11, 13, 13, 15, 16, 16, 18, 19, 19, 13, 16, 1, 0, 9, 3, 2, 1, 5, 4, 3, 8, 7, 6, 3, 1, 9, 6, 5, 3, 9, 8, 6, 6, 3, 9, 0, 1, 11, 10, 1, 2, 12, 11, 2, 3, 13, 12, 3, 4, 14, 13, 4, 5, 15, 14, 5, 6, 16, 15, 6, 7, 17, 16, 7, 8, 18, 17, 8, 9, 19, 18, 9, 0, 10, 19]
            uniform token subdivisionScheme = "none"
        }
        def Mesh "surrounding_vworld_context_10" (
            prepend apiSchemas = ["MaterialBindingAPI", "PhysicsCollisionAPI"]
            customData = {
                string sourceType = "official"
                string confidence = "medium"
                string displayName = "VWorld 주변 건물 10"
                string role = "surrounding"
                double heightM = 6.4
                int floorsEstimate = 2
            }
        )
        {
            rel material:binding = </sadang_317_6/Looks/Official_Context_Building_Concrete>
            bool physics:collisionEnabled = true
            point3f[] points = [
                (37.62017, 0, 16.314658),
                (32.755475, 0, 8.483319),
                (29.494088, 0, 10.367961),
                (30.303251, 0, 11.642571),
                (26.927027, 0, 13.79772),
                (29.013537, 0, 16.536185),
                (28.483518, 0, 16.907992),
                (30.813837, 0, 20.767449),
                (37.62017, 6.4, 16.314658),
                (32.755475, 6.4, 8.483319),
                (29.494088, 6.4, 10.367961),
                (30.303251, 6.4, 11.642571),
                (26.927027, 6.4, 13.79772),
                (29.013537, 6.4, 16.536185),
                (28.483518, 6.4, 16.907992),
                (30.813837, 6.4, 20.767449)
            ]
            int[] faceVertexCounts = [3, 3, 3, 3, 3, 3, 3, 3, 3, 3, 3, 3, 4, 4, 4, 4, 4, 4, 4, 4]
            int[] faceVertexIndices = [14, 15, 8, 8, 9, 10, 11, 12, 13, 13, 14, 8, 8, 10, 11, 11, 13, 8, 0, 7, 6, 2, 1, 0, 5, 4, 3, 0, 6, 5, 3, 2, 0, 0, 5, 3, 0, 1, 9, 8, 1, 2, 10, 9, 2, 3, 11, 10, 3, 4, 12, 11, 4, 5, 13, 12, 5, 6, 14, 13, 6, 7, 15, 14, 7, 0, 8, 15]
            uniform token subdivisionScheme = "none"
        }
        def Mesh "surrounding_vworld_context_11" (
            prepend apiSchemas = ["MaterialBindingAPI", "PhysicsCollisionAPI"]
            customData = {
                string sourceType = "official"
                string confidence = "medium"
                string displayName = "VWorld 주변 건물 11"
                string role = "surrounding"
                int heightM = 7
                int floorsEstimate = 2
            }
        )
        {
            rel material:binding = </sadang_317_6/Looks/Official_Context_Building_Concrete>
            bool physics:collisionEnabled = true
            point3f[] points = [
                (16.895526, 0, -38.697141),
                (13.056418, 0, -35.094858),
                (11.183683, 0, -34.87556),
                (7.859577, 0, -32.243977),
                (11.57148, 0, -26.570042),
                (20.749651, 0, -33.931574),
                (16.895526, 7, -38.697141),
                (13.056418, 7, -35.094858),
                (11.183683, 7, -34.87556),
                (7.859577, 7, -32.243977),
                (11.57148, 7, -26.570042),
                (20.749651, 7, -33.931574)
            ]
            int[] faceVertexCounts = [3, 3, 3, 3, 3, 3, 3, 3, 4, 4, 4, 4, 4, 4]
            int[] faceVertexIndices = [10, 11, 6, 7, 8, 9, 10, 6, 7, 7, 9, 10, 0, 5, 4, 3, 2, 1, 1, 0, 4, 4, 3, 1, 0, 1, 7, 6, 1, 2, 8, 7, 2, 3, 9, 8, 3, 4, 10, 9, 4, 5, 11, 10, 5, 0, 6, 11]
            uniform token subdivisionScheme = "none"
        }
        def Mesh "surrounding_vworld_context_12" (
            prepend apiSchemas = ["MaterialBindingAPI", "PhysicsCollisionAPI"]
            customData = {
                string sourceType = "official"
                string confidence = "medium"
                string displayName = "VWorld 주변 건물 12"
                string role = "surrounding"
                double heightM = 6.4
                int floorsEstimate = 2
            }
        )
        {
            rel material:binding = </sadang_317_6/Looks/Official_Context_Building_Concrete>
            bool physics:collisionEnabled = true
            point3f[] points = [
                (40.215499, 0, -2.271262),
                (38.561838, 0, -1.579968),
                (37.812744, 0, -1.26716),
                (37.219122, 0, -0.421132),
                (36.610483, 0, 0.079806),
                (35.814571, 0, -1.048974),
                (31.194568, 0, 1.958879),
                (34.922371, 0, 7.883307),
                (42.757826, 0, 2.744795),
                (40.215499, 6.4, -2.271262),
                (38.561838, 6.4, -1.579968),
                (37.812744, 6.4, -1.26716),
                (37.219122, 6.4, -0.421132),
                (36.610483, 6.4, 0.079806),
                (35.814571, 6.4, -1.048974),
                (31.194568, 6.4, 1.958879),
                (34.922371, 6.4, 7.883307),
                (42.757826, 6.4, 2.744795)
            ]
            int[] faceVertexCounts = [3, 3, 3, 3, 3, 3, 3, 3, 3, 3, 3, 3, 3, 3, 4, 4, 4, 4, 4, 4, 4, 4, 4]
            int[] faceVertexIndices = [16, 17, 9, 10, 11, 12, 13, 14, 15, 16, 9, 10, 13, 15, 16, 16, 10, 12, 12, 13, 16, 0, 8, 7, 3, 2, 1, 6, 5, 4, 1, 0, 7, 7, 6, 4, 3, 1, 7, 7, 4, 3, 0, 1, 10, 9, 1, 2, 11, 10, 2, 3, 12, 11, 3, 4, 13, 12, 4, 5, 14, 13, 5, 6, 15, 14, 6, 7, 16, 15, 7, 8, 17, 16, 8, 0, 9, 17]
            uniform token subdivisionScheme = "none"
        }
        def Mesh "surrounding_vworld_context_13" (
            prepend apiSchemas = ["MaterialBindingAPI", "PhysicsCollisionAPI"]
            customData = {
                string sourceType = "official"
                string confidence = "medium"
                string displayName = "VWorld 주변 건물 13"
                string role = "surrounding"
                double heightM = 12.8
                int floorsEstimate = 4
            }
        )
        {
            rel material:binding = </sadang_317_6/Looks/Official_Context_Building_Concrete>
            bool physics:collisionEnabled = true
            point3f[] points = [
                (-20.751757, 0, 27.451091),
                (-26.732143, 0, 19.546271),
                (-34.774305, 0, 25.682218),
                (-28.793919, 0, 33.587045),
                (-20.751757, 12.8, 27.451091),
                (-26.732143, 12.8, 19.546271),
                (-34.774305, 12.8, 25.682218),
                (-28.793919, 12.8, 33.587045)
            ]
            int[] faceVertexCounts = [3, 3, 3, 3, 4, 4, 4, 4]
            int[] faceVertexIndices = [6, 7, 4, 4, 5, 6, 0, 3, 2, 2, 1, 0, 0, 1, 5, 4, 1, 2, 6, 5, 2, 3, 7, 6, 3, 0, 4, 7]
            uniform token subdivisionScheme = "none"
        }
        def Mesh "surrounding_vworld_context_14" (
            prepend apiSchemas = ["MaterialBindingAPI", "PhysicsCollisionAPI"]
            customData = {
                string sourceType = "official"
                string confidence = "medium"
                string displayName = "아크(ARC)빌딩"
                string role = "surrounding"
                double heightM = 12.8
                int floorsEstimate = 4
            }
        )
        {
            rel material:binding = </sadang_317_6/Looks/Official_Context_Building_Concrete>
            bool physics:collisionEnabled = true
            point3f[] points = [
                (6.107863, 0, 44.327201),
                (16.418508, 0, 37.966373),
                (20.216098, 0, 35.760011),
                (21.701036, 0, 34.897281),
                (19.834484, 0, 31.846001),
                (15.405288, 0, 24.605756),
                (-0.209969, 0, 34.23938),
                (1.14158, 0, 36.450195),
                (3.017849, 0, 39.425779),
                (4.279296, 0, 41.427313),
                (6.107863, 12.8, 44.327201),
                (16.418508, 12.8, 37.966373),
                (20.216098, 12.8, 35.760011),
                (21.701036, 12.8, 34.897281),
                (19.834484, 12.8, 31.846001),
                (15.405288, 12.8, 24.605756),
                (-0.209969, 12.8, 34.23938),
                (1.14158, 12.8, 36.450195),
                (3.017849, 12.8, 39.425779),
                (4.279296, 12.8, 41.427313)
            ]
            int[] faceVertexCounts = [3, 3, 3, 3, 3, 3, 3, 3, 3, 3, 3, 3, 3, 3, 3, 3, 4, 4, 4, 4, 4, 4, 4, 4, 4, 4]
            int[] faceVertexIndices = [18, 19, 10, 12, 13, 14, 14, 15, 16, 16, 17, 18, 18, 10, 11, 11, 12, 14, 14, 16, 18, 18, 11, 14, 0, 9, 8, 4, 3, 2, 6, 5, 4, 8, 7, 6, 1, 0, 8, 4, 2, 1, 8, 6, 4, 4, 1, 8, 0, 1, 11, 10, 1, 2, 12, 11, 2, 3, 13, 12, 3, 4, 14, 13, 4, 5, 15, 14, 5, 6, 16, 15, 6, 7, 17, 16, 7, 8, 18, 17, 8, 9, 19, 18, 9, 0, 10, 19]
            uniform token subdivisionScheme = "none"
        }
        def Mesh "surrounding_vworld_context_15" (
            prepend apiSchemas = ["MaterialBindingAPI", "PhysicsCollisionAPI"]
            customData = {
                string sourceType = "official"
                string confidence = "medium"
                string displayName = "VWorld 주변 건물 15"
                string role = "surrounding"
                double heightM = 9.6
                int floorsEstimate = 3
            }
        )
        {
            rel material:binding = </sadang_317_6/Looks/Official_Context_Building_Concrete>
            bool physics:collisionEnabled = true
            point3f[] points = [
                (30.546177, 0, 29.304567),
                (26.366974, 0, 22.594206),
                (18.770911, 0, 27.129377),
                (23.046402, 0, 33.887609),
                (30.546177, 9.6, 29.304567),
                (26.366974, 9.6, 22.594206),
                (18.770911, 9.6, 27.129377),
                (23.046402, 9.6, 33.887609)
            ]
            int[] faceVertexCounts = [3, 3, 3, 3, 4, 4, 4, 4]
            int[] faceVertexIndices = [6, 7, 4, 4, 5, 6, 0, 3, 2, 2, 1, 0, 0, 1, 5, 4, 1, 2, 6, 5, 2, 3, 7, 6, 3, 0, 4, 7]
            uniform token subdivisionScheme = "none"
        }
        def Mesh "surrounding_vworld_context_16" (
            prepend apiSchemas = ["MaterialBindingAPI", "PhysicsCollisionAPI"]
            customData = {
                string sourceType = "official"
                string confidence = "medium"
                string displayName = "VWorld 주변 건물 16"
                string role = "surrounding"
                double heightM = 9.6
                int floorsEstimate = 3
            }
        )
        {
            rel material:binding = </sadang_317_6/Looks/Official_Context_Building_Concrete>
            bool physics:collisionEnabled = true
            point3f[] points = [
                (-34.932428, 0, 25.126732),
                (-26.859348, 0, 19.322518),
                (-29.81509, 0, 15.34729),
                (-32.373317, 0, 11.907512),
                (-32.938671, 0, 12.313828),
                (-40.235273, 0, 17.560326),
                (-40.446397, 0, 17.713947),
                (-34.932428, 9.6, 25.126732),
                (-26.859348, 9.6, 19.322518),
                (-29.81509, 9.6, 15.34729),
                (-32.373317, 9.6, 11.907512),
                (-32.938671, 9.6, 12.313828),
                (-40.235273, 9.6, 17.560326),
                (-40.446397, 9.6, 17.713947)
            ]
            int[] faceVertexCounts = [3, 3, 3, 3, 3, 3, 3, 3, 3, 3, 4, 4, 4, 4, 4, 4, 4]
            int[] faceVertexIndices = [12, 13, 7, 7, 8, 9, 9, 10, 11, 11, 12, 7, 7, 9, 11, 0, 6, 5, 2, 1, 0, 4, 3, 2, 0, 5, 4, 4, 2, 0, 0, 1, 8, 7, 1, 2, 9, 8, 2, 3, 10, 9, 3, 4, 11, 10, 4, 5, 12, 11, 5, 6, 13, 12, 6, 0, 7, 13]
            uniform token subdivisionScheme = "none"
        }
        def Mesh "road_1" (
            prepend apiSchemas = ["MaterialBindingAPI", "PhysicsCollisionAPI"]
            customData = {
                string sourceType = "official"
                string confidence = "medium"
                string displayName = "사당로"
                int widthM = 16
            }
        )
        {
            rel material:binding = </sadang_317_6/Looks/Official_Road_Asphalt>
            bool physics:collisionEnabled = true
            point3f[] points = [
                (-1701.30732, 0.06, 1496.063856),
                (-1672.957462, 0.06, 1490.575938),
                (-1675.998266, 0.06, 1474.867548),
                (-1704.348124, 0.06, 1480.355467),
                (-1672.95735, 0.06, 1490.575916),
                (-1571.834053, 0.06, 1470.99914),
                (-1574.875081, 0.06, 1455.290794),
                (-1675.998378, 0.06, 1474.86757),
                (-1571.834264, 0.06, 1470.999181),
                (-1482.361678, 0.06, 1453.680403),
                (-1485.402283, 0.06, 1437.971975),
                (-1574.874869, 0.06, 1455.290753),
                (-1482.349355, 0.06, 1453.678008),
                (-1481.750433, 0.06, 1453.561102),
                (-1484.815684, 0.06, 1437.857464),
                (-1485.414606, 0.06, 1437.97437),
                (-1481.823461, 0.06, 1453.575005),
                (-1379.055336, 0.06, 1434.504907),
                (-1381.974531, 0.06, 1418.773464),
                (-1484.742656, 0.06, 1437.843562),
                (-1379.129573, 0.06, 1434.518321),
                (-1257.650878, 0.06, 1413.15915),
                (-1260.421599, 0.06, 1397.400879),
                (-1381.900294, 0.06, 1418.76005),
                (-1257.563036, 0.06, 1413.143199),
                (-1218.187007, 0.06, 1405.765926),
                (-1221.133412, 0.06, 1390.039556),
                (-1260.509441, 0.06, 1397.41683),
                (-1218.186998, 0.06, 1405.765924),
                (-1129.101326, 0.06, 1389.075228),
                (-1132.047748, 0.06, 1373.348862),
                (-1221.13342, 0.06, 1390.039558),
                (-1129.336835, 0.06, 1389.115721),
                (-1118.785914, 0.06, 1387.463465),
                (-1121.261318, 0.06, 1371.656113),
                (-1131.812239, 0.06, 1373.308369),
                (-1118.78603, 0.06, 1387.463483),
                (-1114.313549, 0.06, 1386.763168),
                (-1116.788722, 0.06, 1370.955779),
                (-1121.261203, 0.06, 1371.656095),
                (-1114.313014, 0.06, 1386.763084),
                (-1110.738033, 0.06, 1386.203054),
                (-1113.214275, 0.06, 1370.395833),
                (-1116.789256, 0.06, 1370.955863),
                (-1110.659494, 0.06, 1386.19035),
                (-1108.731106, 0.06, 1385.868583),
                (-1111.364426, 0.06, 1370.08677),
                (-1113.292814, 0.06, 1370.408537),
                (-1108.729238, 0.06, 1385.868271),
                (-1088.567297, 0.06, 1382.499186),
                (-1091.204354, 0.06, 1366.717997),
                (-1111.366295, 0.06, 1370.087082),
                (-1087.865744, 0.06, 1382.349345),
                (-1066.376105, 0.06, 1376.741256),
                (-1070.416268, 0.06, 1361.259749),
                (-1091.905908, 0.06, 1366.867837),
                (-1065.602918, 0.06, 1376.497012),
                (-1050.67757, 0.06, 1370.935689),
                (-1056.264107, 0.06, 1355.94267),
                (-1071.189455, 0.06, 1361.503993),
                (-1049.946663, 0.06, 1370.621114),
                (-1041.653625, 0.06, 1366.55172),
                (-1048.701976, 0.06, 1352.187851),
                (-1056.995014, 0.06, 1356.257245),
                (-1041.316957, 0.06, 1366.376488),
                (-1030.565512, 0.06, 1360.452211),
                (-1038.287199, 0.06, 1346.438806),
                (-1049.038644, 0.06, 1352.363083),
                (-1029.685484, 0.06, 1359.889431),
                (-1026.092836, 0.06, 1357.246276),
                (-1035.574578, 0.06, 1344.358431),
                (-1039.167227, 0.06, 1347.001586),
                (-1026.091536, 0.06, 1357.24532),
                (-1025.39721, 0.06, 1356.73428),
                (-1034.881552, 0.06, 1343.848348),
                (-1035.575878, 0.06, 1344.359387),
                (-1025.398341, 0.06, 1356.735112),
                (-1022.081302, 0.06, 1354.294593),
                (-1031.563384, 0.06, 1341.406997),
                (-1034.880422, 0.06, 1343.847516),
                (-1021.344043, 0.06, 1353.680737),
                (-1015.678135, 0.06, 1348.356577),
                (-1026.634735, 0.06, 1336.696692),
                (-1032.300643, 0.06, 1342.020852),
                (-1015.502428, 0.06, 1348.186335),
                (-1008.516771, 0.06, 1341.207704),
                (-1019.824785, 0.06, 1329.888305),
                (-1026.810442, 0.06, 1336.866935),
                (-1008.17506, 0.06, 1340.844358),
                (-1002.249442, 0.06, 1334.136283),
                (-1014.240879, 0.06, 1323.543576),
                (-1020.166497, 0.06, 1330.251651),
                (-1001.827449, 0.06, 1333.616224),
                (-996.520188, 0.06, 1326.485073),
                (-1009.35561, 0.06, 1316.932485),
                (-1014.662872, 0.06, 1324.063636),
                (-996.16602, 0.06, 1325.968082),
                (-993.466455, 0.06, 1321.676034),
                (-1007.010212, 0.06, 1313.157428),
                (-1009.709778, 0.06, 1317.449476),
                (-993.025496, 0.06, 1320.87722),
                (-976.679696, 0.06, 1286.807011),
                (-991.10537, 0.06, 1279.886033),
                (-1007.45117, 0.06, 1313.956242),
                (-976.427218, 0.06, 1286.222123),
                (-963.558346, 0.06, 1252.813391),
                (-978.488975, 0.06, 1247.062189),
                (-991.357847, 0.06, 1280.470921),
                (-963.630013, 0.06, 1252.992946),
                (-941.631555, 0.06, 1199.755467),
                (-956.418849, 0.06, 1193.645154),
                (-978.417307, 0.06, 1246.882633),
                (-941.683169, 0.06, 1199.877503),
                (-924.817066, 0.06, 1160.902367),
                (-939.501132, 0.06, 1154.547983),
                (-956.367235, 0.06, 1193.523119),
                (-925.844361, 0.06, 1162.636801),
                (-917.358749, 0.06, 1151.727091),
                (-929.988226, 0.06, 1141.903838),
                (-938.473838, 0.06, 1152.813548),
                (-918.020706, 0.06, 1152.476389),
                (-913.712531, 0.06, 1148.174411),
                (-925.018094, 0.06, 1136.852563),
                (-929.326269, 0.06, 1141.15454),
                (-913.391652, 0.06, 1147.834707),
                (-896.473431, 0.06, 1128.842125),
                (-908.420752, 0.06, 1118.199685),
                (-925.338973, 0.06, 1137.192267),
                (-896.648859, 0.06, 1129.032756),
                (-868.348469, 0.06, 1099.261952),
                (-879.944934, 0.06, 1088.23825),
                (-908.245324, 0.06, 1118.009054),
                (-868.191506, 0.06, 1099.091977),
                (-851.352788, 0.06, 1080.319948),
                (-863.263179, 0.06, 1069.636195),
                (-880.101898, 0.06, 1088.408224),
                (-851.387097, 0.06, 1080.357951),
                (-832.189792, 0.06, 1059.230144),
                (-844.031564, 0.06, 1048.470385),
                (-863.22887, 0.06, 1069.598191),
                (-832.102783, 0.06, 1059.132802),
                (-812.925796, 0.06, 1037.322575),
                (-824.941586, 0.06, 1026.757501),
                (-844.118573, 0.06, 1048.567727),
                (-812.399375, 0.06, 1036.655525),
                (-802.355506, 0.06, 1022.436045),
                (-815.424138, 0.06, 1013.205072),
                (-825.468007, 0.06, 1027.424552),
                (-801.85673, 0.06, 1021.63312),
                (-794.049543, 0.06, 1007.231078),
                (-808.115727, 0.06, 999.605956),
                (-815.922913, 0.06, 1014.007998),
                (-793.605119, 0.06, 1006.26224),
                (-789.165323, 0.06, 994.587876),
                (-804.120354, 0.06, 988.900431),
                (-808.560151, 0.06, 1000.574795),
                (-789.079814, 0.06, 994.351961),
                (-783.761069, 0.06, 978.926818),
                (-798.887118, 0.06, 973.711203),
                (-804.205863, 0.06, 989.136346),
                (-783.73796, 0.06, 978.85881),
                (-777.216954, 0.06, 959.381199),
                (-792.38922, 0.06, 954.3016),
                (-798.910227, 0.06, 973.779212),
                (-777.225777, 0.06, 959.407403),
                (-771.485666, 0.06, 942.457075),
                (-786.640286, 0.06, 937.325069),
                (-792.380397, 0.06, 954.275396),
                (-771.489872, 0.06, 942.469461),
                (-763.529863, 0.06, 919.089756),
                (-778.676071, 0.06, 913.932977),
                (-786.63608, 0.06, 937.312683),
                (-763.599021, 0.06, 919.284594),
                (-757.738772, 0.06, 903.427625),
                (-772.746665, 0.06, 897.881169),
                (-778.606913, 0.06, 913.738139),
                (-758.010775, 0.06, 904.074775),
                (-754.661935, 0.06, 896.994091),
                (-769.125823, 0.06, 890.153334),
                (-772.474662, 0.06, 897.234018),
                (-754.979844, 0.06, 897.598153),
                (-747.794547, 0.06, 885.253729),
                (-761.622617, 0.06, 877.204848),
                (-768.807914, 0.06, 889.549272),
                (-748.182095, 0.06, 885.855839),
                (-743.554142, 0.06, 879.327374),
                (-756.607115, 0.06, 870.074273),
                (-761.235068, 0.06, 876.602738),
                (-744.246006, 0.06, 880.174139),
                (-707.533325, 0.06, 841.03797),
                (-719.202568, 0.06, 830.091338),
                (-755.91525, 0.06, 869.227508),
                (-707.577128, 0.06, 841.084293),
                (-680.557619, 0.06, 812.737321),
                (-692.139256, 0.06, 801.698042),
                (-719.158765, 0.06, 830.045014),
                (-679.877413, 0.06, 811.921492),
                (-675.729127, 0.06, 806.214702),
                (-688.671177, 0.06, 796.807081),
                (-692.819462, 0.06, 802.513871),
                (-674.706337, 0.06, 804.311382),
                (-671.093371, 0.06, 794.64347),
                (-686.081, 0.06, 789.042489),
                (-689.693966, 0.06, 798.710401),
                (-671.093634, 0.06, 794.644174),
                (-663.659228, 0.06, 774.756187),
                (-678.646331, 0.06, 769.153799),
                (-686.080737, 0.06, 789.041786),
                (-663.658917, 0.06, 774.755355),
                (-645.440381, 0.06, 726.001934),
                (-660.428106, 0.06, 720.401211),
                (-678.646642, 0.06, 769.154632),
                (-645.27765, 0.06, 725.520316),
                (-633.368112, 0.06, 686.194487),
                (-648.6813, 0.06, 681.557001),
                (-660.590837, 0.06, 720.88283),
                (-633.350749, 0.06, 686.13636),
                (-623.979122, 0.06, 654.323143),
                (-639.327035, 0.06, 649.801911),
                (-648.698663, 0.06, 681.615128),
                (-624.476131, 0.06, 655.596848),
                (-619.038131, 0.06, 644.554208),
                (-633.392026, 0.06, 637.485565),
                (-638.830026, 0.06, 648.528206),
                (-619.481496, 0.06, 645.339477),
                (-608.359037, 0.06, 628.001259),
                (-621.826203, 0.06, 619.362078),
                (-632.948662, 0.06, 636.700296),
                (-609.094385, 0.06, 628.975172),
                (-595.250277, 0.06, 613.287979),
                (-607.246747, 0.06, 602.700972),
                (-621.090855, 0.06, 618.388165),
                (-595.365412, 0.06, 613.41565),
                (-580.770443, 0.06, 597.577082),
                (-592.536642, 0.06, 586.734731),
                (-607.131611, 0.06, 602.5733),
                (-580.742738, 0.06, 597.546861),
                (-580.654402, 0.06, 597.450006),
                (-592.47601, 0.06, 586.668097),
                (-592.564347, 0.06, 586.764952),
                (-580.648172, 0.06, 597.443168),
                (-559.422659, 0.06, 574.116764),
                (-571.256727, 0.06, 563.348531),
                (-592.48224, 0.06, 586.674935),
                (-559.647889, 0.06, 574.354335),
                (-557.298136, 0.06, 571.975275),
                (-568.681744, 0.06, 560.7319),
                (-571.031497, 0.06, 563.11096),
                (-557.300028, 0.06, 571.97719),
                (-543.8181, 0.06, 558.336293),
                (-555.197923, 0.06, 547.089088),
                (-568.679852, 0.06, 560.729985),
                (-543.817587, 0.06, 558.335774),
                (-517.896101, 0.06, 532.103857),
                (-529.276951, 0.06, 520.85769),
                (-555.198436, 0.06, 547.089607),
                (-517.911445, 0.06, 532.119342),
                (-491.213481, 0.06, 505.248495),
                (-502.563643, 0.06, 493.971358),
                (-529.261607, 0.06, 520.842205),
                (-491.215968, 0.06, 505.250997),
                (-490.704499, 0.06, 504.73667),
                (-502.049687, 0.06, 493.454529),
                (-502.561156, 0.06, 493.968856),
                (-490.664484, 0.06, 504.696143),
                (-489.2882, 0.06, 503.29232),
                (-500.713419, 0.06, 492.091233),
                (-502.089703, 0.06, 493.495056),
                (-489.28621, 0.06, 503.29029),
                (-455.88085, 0.06, 469.192268),
                (-467.310048, 0.06, 457.995241),
                (-500.715409, 0.06, 492.093263),
                (-455.880829, 0.06, 469.192247),
                (-432.281713, 0.06, 445.103625),
                (-443.710952, 0.06, 433.906639),
                (-467.310069, 0.06, 457.995262),
                (-432.311529, 0.06, 445.133898),
                (-431.048316, 0.06, 443.85811),
                (-442.417922, 0.06, 432.600576),
                (-443.681135, 0.06, 433.876365),
                (-431.04645, 0.06, 443.856225),
                (-415.949729, 0.06, 428.599096),
                (-427.323067, 0.06, 417.345333),
                (-442.419788, 0.06, 432.602461),
                (-415.949533, 0.06, 428.598898),
                (-409.195318, 0.06, 421.772442),
                (-420.569048, 0.06, 410.519075),
                (-427.323263, 0.06, 417.345531),
                (-409.195818, 0.06, 421.772947),
                (-406.133189, 0.06, 418.67811),
                (-417.505919, 0.06, 407.423733),
                (-420.568549, 0.06, 410.51857),
                (-406.132227, 0.06, 418.677138),
                (-399.21724, 0.06, 411.687042),
                (-410.591894, 0.06, 400.434609),
                (-417.506881, 0.06, 407.424705),
                (-399.218022, 0.06, 411.687833),
                (-394.843594, 0.06, 407.26712),
                (-406.216684, 0.06, 396.013107),
                (-410.591112, 0.06, 400.433819),
                (-394.847638, 0.06, 407.271204),
                (-394.138295, 0.06, 406.555385),
                (-405.503298, 0.06, 395.293204),
                (-406.212641, 0.06, 396.009023),
                (-394.083726, 0.06, 406.499778),
                (-378.751146, 0.06, 390.722832),
                (-390.225288, 0.06, 379.571865),
                (-405.557868, 0.06, 395.348811),
                (-378.752119, 0.06, 390.723833),
                (-377.935006, 0.06, 389.883332),
                (-389.407201, 0.06, 378.730362),
                (-390.224315, 0.06, 379.570864),
                (-377.915216, 0.06, 389.862903),
                (-367.103702, 0.06, 378.662538),
                (-378.615477, 0.06, 367.550426),
                (-389.426991, 0.06, 378.750791),
                (-367.105322, 0.06, 378.664216),
                (-365.491413, 0.06, 376.993235),
                (-376.999948, 0.06, 365.877767),
                (-378.613857, 0.06, 367.548748),
                (-365.489339, 0.06, 376.991087),
                (-359.021335, 0.06, 370.289356),
                (-370.534018, 0.06, 359.178185),
                (-377.002022, 0.06, 365.879915),
                (-359.056158, 0.06, 370.325212),
                (-358.84945, 0.06, 370.113696),
                (-370.292487, 0.06, 358.930812),
                (-370.499195, 0.06, 359.142328),
                (-358.840637, 0.06, 370.104664),
                (-348.628928, 0.06, 359.622366),
                (-360.089592, 0.06, 348.457547),
                (-370.301301, 0.06, 358.939844),
                (-348.630258, 0.06, 359.62373),
                (-346.919178, 0.06, 357.868147),
                (-358.377183, 0.06, 346.7006),
                (-360.088263, 0.06, 348.456183),
                (-346.919638, 0.06, 357.868619),
                (-345.860482, 0.06, 356.782094),
                (-357.317568, 0.06, 345.613604),
                (-358.376724, 0.06, 346.700128),
                (-346.034013, 0.06, 356.954744),
                (-319.037472, 0.06, 330.904921),
                (-330.147495, 0.06, 319.39113),
                (-357.144037, 0.06, 345.440954),
                (-319.938212, 0.06, 331.654772),
                (-308.7389, 0.06, 323.643911),
                (-318.047444, 0.06, 310.630418),
                (-329.246756, 0.06, 318.641279),
                (-309.613481, 0.06, 324.187975),
                (-309.376739, 0.06, 324.061066),
                (-316.936122, 0.06, 309.959445),
                (-317.172864, 0.06, 310.086354),
                (-309.36553, 0.06, 324.055046),
                (-297.325255, 0.06, 317.576006),
                (-304.907055, 0.06, 303.486425),
                (-316.94733, 0.06, 309.965464),
                (-297.521011, 0.06, 317.677889),
                (-297.306353, 0.06, 317.569905),
                (-304.496641, 0.06, 303.276558),
                (-304.711299, 0.06, 303.384542),
                (-297.293411, 0.06, 317.56338),
                (-266.296989, 0.06, 301.900156),
                (-273.513161, 0.06, 287.619859),
                (-304.509582, 0.06, 303.283083),
                (-266.296244, 0.06, 301.899779),
                (-263.201814, 0.06, 300.335684),
                (-270.419476, 0.06, 286.056141),
                (-273.513906, 0.06, 287.620236),
                (-263.3185, 0.06, 300.393477),
                (-262.965153, 0.06, 300.222039),
                (-269.949443, 0.06, 285.826911),
                (-270.30279, 0.06, 285.998349),
                (-262.970776, 0.06, 300.224764),
                (-242.966958, 0.06, 290.538518),
                (-249.940003, 0.06, 276.13794),
                (-269.943821, 0.06, 285.824186),
                (-242.921139, 0.06, 290.516151),
                (-231.207709, 0.06, 284.751833),
                (-238.272391, 0.06, 270.395988),
                (-249.985821, 0.06, 276.160307),
                (-231.21569, 0.06, 284.755755),
                (-230.165368, 0.06, 284.240328),
                (-237.214088, 0.06, 269.87664),
                (-238.26441, 0.06, 270.392066),
                (-230.158372, 0.06, 284.236891),
                (-214.044013, 0.06, 276.309568),
                (-221.106726, 0.06, 261.952755),
                (-237.221085, 0.06, 269.880077),
                (-214.053678, 0.06, 276.314315),
                (-213.392921, 0.06, 275.990365),
                (-220.436303, 0.06, 261.624058),
                (-221.097061, 0.06, 261.948008),
                (-213.421955, 0.06, 276.004527),
                (-166.332376, 0.06, 253.153265),
                (-173.317689, 0.06, 238.758634),
                (-220.407269, 0.06, 261.609896),
                (-166.332548, 0.06, 253.153348),
                (-131.059752, 0.06, 236.037486),
                (-138.044721, 0.06, 221.642688),
                (-173.317517, 0.06, 238.75855),
                (-130.401348, 0.06, 235.678955),
                (-103.759036, 0.06, 219.508254),
                (-112.060814, 0.06, 205.830518),
                (-138.703126, 0.06, 222.001218),
                (-102.586625, 0.06, 218.641193),
                (-95.073599, 0.06, 211.944043),
                (-105.720199, 0.06, 200.000429),
                (-113.233225, 0.06, 206.697579),
                (-95.071659, 0.06, 211.942313),
                (-93.024901, 0.06, 210.116628),
                (-103.67538, 0.06, 198.176474),
                (-105.722139, 0.06, 200.002159),
                (-92.522122, 0.06, 209.626898),
                (-85.167219, 0.06, 201.805401),
                (-96.823256, 0.06, 190.844707),
                (-104.178159, 0.06, 198.666204),
                (-85.16324, 0.06, 201.801167),
                (-84.587285, 0.06, 201.187782),
                (-96.25128, 0.06, 190.235557),
                (-96.827234, 0.06, 190.848942),
                (-84.589828, 0.06, 201.190489),
                (-78.042321, 0.06, 194.223953),
                (-89.70123, 0.06, 183.266314),
                (-96.248737, 0.06, 190.23285),
                (-78.037948, 0.06, 194.219296),
                (-77.763221, 0.06, 193.926519),
                (-89.430876, 0.06, 182.978194),
                (-89.705603, 0.06, 183.270971),
                (-77.759903, 0.06, 193.922981),
                (-66.944856, 0.06, 182.383348),
                (-78.619147, 0.06, 171.442098),
                (-89.434194, 0.06, 182.981732),
                (-67.024009, 0.06, 182.466597),
                (-57.632947, 0.06, 172.730392),
                (-69.148932, 0.06, 161.622643),
                (-78.539994, 0.06, 171.358849),
                (-58.279864, 0.06, 173.330939),
                (-49.599028, 0.06, 166.121746),
                (-59.82118, 0.06, 153.812903),
                (-68.502016, 0.06, 161.022096),
                (-49.843689, 0.06, 166.31697),
                (-45.147716, 0.06, 162.717942),
                (-54.880547, 0.06, 150.018651),
                (-59.57652, 0.06, 153.617679),
                (-45.819922, 0.06, 163.180683),
                (-40.494994, 0.06, 159.902262),
                (-48.883412, 0.06, 146.27749),
                (-54.208341, 0.06, 149.55591),
                (-40.5275, 0.06, 159.922169),
                (-30.258373, 0.06, 153.667013),
                (-38.581779, 0.06, 140.002427),
                (-48.850906, 0.06, 146.257583),
                (-30.522911, 0.06, 153.821286),
                (-6.638467, 0.06, 140.498343),
                (-14.432797, 0.06, 126.525211),
                (-38.317241, 0.06, 139.848154),
                (-7.056246, 0.06, 140.715517),
                (27.395903, 0.06, 124.075227),
                (20.437131, 0.06, 109.667747),
                (-14.015018, 0.06, 126.308037),
                (26.356316, 0.06, 124.49037),
                (54.924365, 0.06, 115.34201),
                (50.044767, 0.06, 100.104243),
                (21.476718, 0.06, 109.252604),
                (53.521224, 0.06, 115.655676),
                (77.432169, 0.06, 112.530897),
                (75.358854, 0.06, 96.665798),
                (51.447909, 0.06, 99.790577),
                (77.429677, 0.06, 112.531223),
                (80.785583, 0.06, 112.093731),
                (78.717252, 0.06, 96.227982),
                (75.361346, 0.06, 96.665473),
                (80.440922, 0.06, 112.131088),
                (97.43953, 0.06, 110.660539),
                (96.060521, 0.06, 94.720077),
                (79.061913, 0.06, 96.190626),
                (97.128616, 0.06, 110.681344),
                (103.167305, 0.06, 110.39525),
                (102.410123, 0.06, 94.413176),
                (96.371434, 0.06, 94.699271),
                (103.172358, 0.06, 110.395009),
                (106.163435, 0.06, 110.251405),
                (105.396146, 0.06, 94.269813),
                (102.405069, 0.06, 94.413417),
                (106.162162, 0.06, 110.251466),
                (133.543851, 0.06, 108.941219),
                (132.779107, 0.06, 92.959506),
                (105.397418, 0.06, 94.269752),
                (133.504074, 0.06, 108.943023),
                (135.192186, 0.06, 108.870665),
                (134.506997, 0.06, 92.885343),
                (132.818885, 0.06, 92.957702),
                (134.678401, 0.06, 108.876172),
                (166.872667, 0.06, 109.565248),
                (167.215048, 0.06, 93.568912),
                (135.020782, 0.06, 92.879836),
                (166.245782, 0.06, 109.527173),
                (176.582929, 0.06, 110.56357),
                (178.179079, 0.06, 94.643385),
                (167.841932, 0.06, 93.606987),
                (175.485599, 0.06, 110.3757),
                (198.624482, 0.06, 116.018557),
                (202.415291, 0.06, 100.474112),
                (179.276408, 0.06, 94.831255),
                (198.083315, 0.06, 115.86625),
                (230.010804, 0.06, 126.075502),
                (234.883948, 0.06, 110.83567),
                (202.956459, 0.06, 100.626419),
                (229.608404, 0.06, 125.934906),
                (245.152108, 0.06, 131.834926),
                (250.830052, 0.06, 116.876285),
                (235.286348, 0.06, 110.976265),
                (245.420051, 0.06, 131.931212),
                (272.490795, 0.06, 141.118553),
                (277.632854, 0.06, 125.967341),
                (250.56211, 0.06, 116.78),
                (272.012188, 0.06, 140.938873),
                (304.579234, 0.06, 154.367571),
                (310.678507, 0.06, 139.57572),
                (278.111461, 0.06, 126.147021),
                (304.566787, 0.06, 154.362426),
                (306.630329, 0.06, 155.217375),
                (312.754497, 0.06, 140.435814),
                (310.690955, 0.06, 139.580865),
                (306.630815, 0.06, 155.217577),
                (356.197352, 0.06, 175.749737),
                (362.320549, 0.06, 160.967773),
                (312.754012, 0.06, 140.435612),
                (356.316875, 0.06, 175.798122),
                (371.812877, 0.06, 181.926387),
                (377.697029, 0.06, 167.047652),
                (362.201027, 0.06, 160.919387),
                (371.850752, 0.06, 181.941255),
                (372.082194, 0.06, 182.031425),
                (377.890596, 0.06, 167.122955),
                (377.659154, 0.06, 167.032785),
                (372.062101, 0.06, 182.023566),
                (372.252024, 0.06, 182.098151),
                (378.100613, 0.06, 167.205401),
                (377.910689, 0.06, 167.130815),
                (372.263595, 0.06, 182.102685),
                (400.973866, 0.06, 193.326161),
                (406.799314, 0.06, 178.424343),
                (378.089042, 0.06, 167.200867),
                (400.977549, 0.06, 193.3276),
                (402.62591, 0.06, 193.971041),
                (408.44399, 0.06, 179.066345),
                (406.79563, 0.06, 178.422904),
                (402.555827, 0.06, 193.943302),
                (426.573659, 0.06, 203.580454),
                (432.531906, 0.06, 188.731235),
                (408.514074, 0.06, 179.094084),
                (426.579901, 0.06, 203.582955),
                (427.592238, 0.06, 203.988168),
                (433.538001, 0.06, 189.133946),
                (432.525664, 0.06, 188.728734),
                (427.692937, 0.06, 204.027687),
                (428.636372, 0.06, 204.390598),
                (434.380736, 0.06, 189.457337),
                (433.437302, 0.06, 189.094427),
                (428.642506, 0.06, 204.392954),
                (481.053481, 0.06, 224.504437),
                (486.785578, 0.06, 209.566463),
                (434.374603, 0.06, 189.45498),
                (481.049888, 0.06, 224.503057),
                (481.443869, 0.06, 224.654456),
                (487.183151, 0.06, 209.719241),
                (486.78917, 0.06, 209.567842),
                (481.147243, 0.06, 224.533599),
                (488.05428, 0.06, 227.510361),
                (494.386815, 0.06, 212.816859),
                (487.479778, 0.06, 209.840097),
                (488.226163, 0.06, 227.582078),
                (507.355449, 0.06, 235.303407),
                (513.344217, 0.06, 220.466471),
                (494.214932, 0.06, 212.745142),
                (507.363363, 0.06, 235.306596),
                (509.211364, 0.06, 236.050231),
                (515.184305, 0.06, 221.206917),
                (513.336304, 0.06, 220.463282),
                (509.210256, 0.06, 236.049785),
                (524.988936, 0.06, 242.401853),
                (530.964092, 0.06, 227.559431),
                (515.185413, 0.06, 221.207362),
                (524.70579, 0.06, 242.281488),
                (527.111195, 0.06, 243.359092),
                (533.652643, 0.06, 228.757398),
                (531.247238, 0.06, 227.679795),
                (527.110653, 0.06, 243.358849),
                (584.168132, 0.06, 268.925252),
                (590.710664, 0.06, 254.324044),
                (533.653185, 0.06, 228.757641),
                (584.273582, 0.06, 268.971593),
                (626.895981, 0.06, 287.337684),
                (633.227613, 0.06, 272.643792),
                (590.605214, 0.06, 254.277702),
                (626.896948, 0.06, 287.3381),
                (627.974654, 0.06, 287.802318),
                (634.304352, 0.06, 273.107594),
                (633.226646, 0.06, 272.643376),
                (627.973902, 0.06, 287.801994),
                (652.929868, 0.06, 298.554715),
                (659.261071, 0.06, 283.860639),
                (634.305105, 0.06, 273.107918),
                (652.930699, 0.06, 298.555072),
                (671.970765, 0.06, 306.756271),
                (678.300307, 0.06, 292.06148),
                (659.260241, 0.06, 283.860281),
                (671.970079, 0.06, 306.755976),
                (672.693555, 0.06, 307.067682),
                (679.02447, 0.06, 292.373482),
                (678.300993, 0.06, 292.061776),
                (672.824189, 0.06, 307.122598),
                (708.811628, 0.06, 321.87743),
                (714.881274, 0.06, 307.073397),
                (678.893836, 0.06, 292.318565),
                (708.811626, 0.06, 321.87743),
                (720.598376, 0.06, 326.709994),
                (726.668025, 0.06, 311.905962),
                (714.881275, 0.06, 307.073398),
                (720.602526, 0.06, 326.711694),
                (722.193468, 0.06, 327.362938),
                (728.254817, 0.06, 312.555506),
                (726.663875, 0.06, 311.904262),
                (722.189183, 0.06, 327.361183),
                (749.133606, 0.06, 338.408963),
                (755.203525, 0.06, 323.605041),
                (728.259102, 0.06, 312.557261),
                (749.133774, 0.06, 338.409032),
                (770.410522, 0.06, 347.13238),
                (776.480104, 0.06, 332.328321),
                (755.203356, 0.06, 323.604972)
            ]
            int[] faceVertexCounts = [4, 4, 4, 4, 4, 4, 4, 4, 4, 4, 4, 4, 4, 4, 4, 4, 4, 4, 4, 4, 4, 4, 4, 4, 4, 4, 4, 4, 4, 4, 4, 4, 4, 4, 4, 4, 4, 4, 4, 4, 4, 4, 4, 4, 4, 4, 4, 4, 4, 4, 4, 4, 4, 4, 4, 4, 4, 4, 4, 4, 4, 4, 4, 4, 4, 4, 4, 4, 4, 4, 4, 4, 4, 4, 4, 4, 4, 4, 4, 4, 4, 4, 4, 4, 4, 4, 4, 4, 4, 4, 4, 4, 4, 4, 4, 4, 4, 4, 4, 4, 4, 4, 4, 4, 4, 4, 4, 4, 4, 4, 4, 4, 4, 4, 4, 4, 4, 4, 4, 4, 4, 4, 4, 4, 4, 4, 4, 4, 4, 4, 4, 4, 4, 4, 4, 4, 4, 4, 4, 4, 4, 4, 4, 4, 4, 4, 4, 4, 4, 4, 4, 4, 4, 4, 4, 4, 4, 4]
            int[] faceVertexIndices = [0, 1, 2, 3, 4, 5, 6, 7, 8, 9, 10, 11, 12, 13, 14, 15, 16, 17, 18, 19, 20, 21, 22, 23, 24, 25, 26, 27, 28, 29, 30, 31, 32, 33, 34, 35, 36, 37, 38, 39, 40, 41, 42, 43, 44, 45, 46, 47, 48, 49, 50, 51, 52, 53, 54, 55, 56, 57, 58, 59, 60, 61, 62, 63, 64, 65, 66, 67, 68, 69, 70, 71, 72, 73, 74, 75, 76, 77, 78, 79, 80, 81, 82, 83, 84, 85, 86, 87, 88, 89, 90, 91, 92, 93, 94, 95, 96, 97, 98, 99, 100, 101, 102, 103, 104, 105, 106, 107, 108, 109, 110, 111, 112, 113, 114, 115, 116, 117, 118, 119, 120, 121, 122, 123, 124, 125, 126, 127, 128, 129, 130, 131, 132, 133, 134, 135, 136, 137, 138, 139, 140, 141, 142, 143, 144, 145, 146, 147, 148, 149, 150, 151, 152, 153, 154, 155, 156, 157, 158, 159, 160, 161, 162, 163, 164, 165, 166, 167, 168, 169, 170, 171, 172, 173, 174, 175, 176, 177, 178, 179, 180, 181, 182, 183, 184, 185, 186, 187, 188, 189, 190, 191, 192, 193, 194, 195, 196, 197, 198, 199, 200, 201, 202, 203, 204, 205, 206, 207, 208, 209, 210, 211, 212, 213, 214, 215, 216, 217, 218, 219, 220, 221, 222, 223, 224, 225, 226, 227, 228, 229, 230, 231, 232, 233, 234, 235, 236, 237, 238, 239, 240, 241, 242, 243, 244, 245, 246, 247, 248, 249, 250, 251, 252, 253, 254, 255, 256, 257, 258, 259, 260, 261, 262, 263, 264, 265, 266, 267, 268, 269, 270, 271, 272, 273, 274, 275, 276, 277, 278, 279, 280, 281, 282, 283, 284, 285, 286, 287, 288, 289, 290, 291, 292, 293, 294, 295, 296, 297, 298, 299, 300, 301, 302, 303, 304, 305, 306, 307, 308, 309, 310, 311, 312, 313, 314, 315, 316, 317, 318, 319, 320, 321, 322, 323, 324, 325, 326, 327, 328, 329, 330, 331, 332, 333, 334, 335, 336, 337, 338, 339, 340, 341, 342, 343, 344, 345, 346, 347, 348, 349, 350, 351, 352, 353, 354, 355, 356, 357, 358, 359, 360, 361, 362, 363, 364, 365, 366, 367, 368, 369, 370, 371, 372, 373, 374, 375, 376, 377, 378, 379, 380, 381, 382, 383, 384, 385, 386, 387, 388, 389, 390, 391, 392, 393, 394, 395, 396, 397, 398, 399, 400, 401, 402, 403, 404, 405, 406, 407, 408, 409, 410, 411, 412, 413, 414, 415, 416, 417, 418, 419, 420, 421, 422, 423, 424, 425, 426, 427, 428, 429, 430, 431, 432, 433, 434, 435, 436, 437, 438, 439, 440, 441, 442, 443, 444, 445, 446, 447, 448, 449, 450, 451, 452, 453, 454, 455, 456, 457, 458, 459, 460, 461, 462, 463, 464, 465, 466, 467, 468, 469, 470, 471, 472, 473, 474, 475, 476, 477, 478, 479, 480, 481, 482, 483, 484, 485, 486, 487, 488, 489, 490, 491, 492, 493, 494, 495, 496, 497, 498, 499, 500, 501, 502, 503, 504, 505, 506, 507, 508, 509, 510, 511, 512, 513, 514, 515, 516, 517, 518, 519, 520, 521, 522, 523, 524, 525, 526, 527, 528, 529, 530, 531, 532, 533, 534, 535, 536, 537, 538, 539, 540, 541, 542, 543, 544, 545, 546, 547, 548, 549, 550, 551, 552, 553, 554, 555, 556, 557, 558, 559, 560, 561, 562, 563, 564, 565, 566, 567, 568, 569, 570, 571, 572, 573, 574, 575, 576, 577, 578, 579, 580, 581, 582, 583, 584, 585, 586, 587, 588, 589, 590, 591, 592, 593, 594, 595, 596, 597, 598, 599, 600, 601, 602, 603, 604, 605, 606, 607, 608, 609, 610, 611, 612, 613, 614, 615, 616, 617, 618, 619, 620, 621, 622, 623, 624, 625, 626, 627, 628, 629, 630, 631]
            uniform token subdivisionScheme = "none"
        }
        def Mesh "road_2__14" (
            prepend apiSchemas = ["MaterialBindingAPI", "PhysicsCollisionAPI"]
            customData = {
                string sourceType = "official"
                string confidence = "medium"
                string displayName = "사당로14길"
                int widthM = 7
            }
        )
        {
            rel material:binding = </sadang_317_6/Looks/Official_Road_Asphalt>
            bool physics:collisionEnabled = true
            point3f[] points = [
                (-111.573688, 0.06, 132.742946),
                (-105.230238, 0.06, 140.396285),
                (-99.840817, 0.06, 135.929279),
                (-106.184267, 0.06, 128.275939),
                (-105.975323, 0.06, 138.809162),
                (-105.202378, 0.06, 142.922488),
                (-98.322787, 0.06, 141.629727),
                (-99.095732, 0.06, 137.516402),
                (-105.194166, 0.06, 142.964752),
                (-104.576694, 0.06, 146.041677),
                (-97.713526, 0.06, 144.664386),
                (-98.330999, 0.06, 141.587462),
                (-102.402246, 0.06, 148.619468),
                (-101.927878, 0.06, 148.802036),
                (-99.413607, 0.06, 142.269162),
                (-99.887974, 0.06, 142.086595),
                (-101.154915, 0.06, 149.001948),
                (-90.722365, 0.06, 150.459146),
                (-89.75402, 0.06, 143.526447),
                (-100.18657, 0.06, 142.06925)
            ]
            int[] faceVertexCounts = [4, 4, 4, 4, 4]
            int[] faceVertexIndices = [0, 1, 2, 3, 4, 5, 6, 7, 8, 9, 10, 11, 12, 13, 14, 15, 16, 17, 18, 19]
            uniform token subdivisionScheme = "none"
        }
        def Mesh "road_3__15" (
            prepend apiSchemas = ["MaterialBindingAPI", "PhysicsCollisionAPI"]
            customData = {
                string sourceType = "official"
                string confidence = "medium"
                string displayName = "동작대로15길"
                int widthM = 6
            }
        )
        {
            rel material:binding = </sadang_317_6/Looks/Official_Road_Asphalt>
            bool physics:collisionEnabled = true
            point3f[] points = [
                (754.922742, 0.06, -15.318244),
                (691.270937, 0.06, -12.500751),
                (691.536263, 0.06, -6.50662),
                (755.188067, 0.06, -9.324113),
                (691.270955, 0.06, -12.500751),
                (661.239169, 0.06, -11.171598),
                (661.504458, 0.06, -5.177466),
                (691.536245, 0.06, -6.506619),
                (661.239151, 0.06, -11.171597),
                (648.48865, 0.06, -10.607208),
                (648.753974, 0.06, -4.613077),
                (661.504476, 0.06, -5.177467),
                (648.485471, 0.06, -10.607065),
                (643.647277, 0.06, -10.387766),
                (643.918958, 0.06, -4.39392),
                (648.757153, 0.06, -4.61322),
                (643.64692, 0.06, -10.38775),
                (637.498695, 0.06, -10.108338),
                (637.771089, 0.06, -4.114525),
                (643.919315, 0.06, -4.393936),
                (637.635406, 0.06, -10.111432),
                (631.143551, 0.06, -10.112545),
                (631.142522, 0.06, -4.112545),
                (637.634377, 0.06, -4.111432),
                (631.007318, 0.06, -10.109473),
                (625.181521, 0.06, -9.845646),
                (625.452958, 0.06, -3.851789),
                (631.278756, 0.06, -4.115616),
                (625.180837, 0.06, -9.845615),
                (620.020214, 0.06, -9.610731),
                (620.293019, 0.06, -3.616936),
                (625.453642, 0.06, -3.85182),
                (620.157731, 0.06, -9.613834),
                (617.161354, 0.06, -9.614947),
                (617.159125, 0.06, -3.614947),
                (620.155502, 0.06, -3.613834),
                (617.017069, 0.06, -9.611529),
                (612.05432, 0.06, -9.374418),
                (612.340662, 0.06, -3.381255),
                (617.303411, 0.06, -3.618365),
                (612.054968, 0.06, -9.374449),
                (606.531282, 0.06, -9.111735),
                (606.816327, 0.06, -3.11851),
                (612.340014, 0.06, -3.381224),
                (606.558674, 0.06, -9.112913),
                (600.065935, 0.06, -8.863557),
                (600.296197, 0.06, -2.867977),
                (606.788936, 0.06, -3.117333),
                (600.036014, 0.06, -8.862259),
                (588.813736, 0.06, -8.31902),
                (589.103839, 0.06, -2.326037),
                (600.326118, 0.06, -2.869276),
                (588.814635, 0.06, -8.319063),
                (584.556812, 0.06, -8.114235),
                (584.845116, 0.06, -2.121166),
                (589.102939, 0.06, -2.325994),
                (584.572633, 0.06, -8.114955),
                (541.491767, 0.06, -6.270391),
                (541.74843, 0.06, -0.275883),
                (584.829296, 0.06, -2.120447),
                (541.493005, 0.06, -6.270444),
                (421.647654, 0.06, -1.188709),
                (421.90184, 0.06, 4.805904),
                (541.747192, 0.06, -0.275831),
                (421.647683, 0.06, -1.18871),
                (396.806554, 0.06, -0.135627),
                (397.060682, 0.06, 5.858988),
                (421.901811, 0.06, 4.805906),
                (396.934422, 0.06, -0.138319),
                (392.780836, 0.06, -0.139433),
                (392.779228, 0.06, 5.860567),
                (396.932814, 0.06, 5.86168),
                (392.780658, 0.06, -0.139433),
                (387.446012, 0.06, -0.140546),
                (387.44476, 0.06, 5.859454),
                (392.779406, 0.06, 5.860567),
                (387.165115, 0.06, -0.127425),
                (371.185028, 0.06, 1.372049),
                (371.74557, 0.06, 7.345808),
                (387.725656, 0.06, 5.846333),
                (371.432132, 0.06, 1.359112),
                (367.102756, 0.06, 1.406979),
                (367.16909, 0.06, 7.406613),
                (371.498466, 0.06, 7.358745),
                (367.103618, 0.06, 1.40697),
                (361.624984, 0.06, 1.465969),
                (361.689594, 0.06, 7.465621),
                (367.168228, 0.06, 7.406622),
                (361.624358, 0.06, 1.465976),
                (353.613114, 0.06, 1.553918),
                (353.678975, 0.06, 7.553557),
                (361.690219, 0.06, 7.465615),
                (353.613752, 0.06, 1.553912),
                (348.960182, 0.06, 1.604005),
                (349.024765, 0.06, 7.603658),
                (353.678336, 0.06, 7.553564),
                (348.842523, 0.06, 1.607581),
                (338.85519, 0.06, 2.107406),
                (339.15509, 0.06, 8.099907),
                (349.142423, 0.06, 7.600082),
                (338.855991, 0.06, 2.107366),
                (334.114967, 0.06, 2.343364),
                (334.413264, 0.06, 8.335944),
                (339.154289, 0.06, 8.099947),
                (334.114076, 0.06, 2.343408),
                (328.867766, 0.06, 2.606122),
                (329.167846, 0.06, 8.598614),
                (334.414156, 0.06, 8.3359),
                (328.932623, 0.06, 2.603578),
                (311.454348, 0.06, 3.100063),
                (311.624714, 0.06, 9.097644),
                (329.10299, 0.06, 8.601159),
                (310.848051, 0.06, 3.179632),
                (301.744967, 0.06, 5.335893),
                (303.127927, 0.06, 11.174336),
                (312.231011, 0.06, 9.018075),
                (301.745206, 0.06, 5.335836),
                (292.869147, 0.06, 7.43755),
                (294.251628, 0.06, 13.276107),
                (303.127687, 0.06, 11.174393),
                (292.538407, 0.06, 7.536269),
                (274.559263, 0.06, 14.050697),
                (276.603224, 0.06, 19.691817),
                (294.582368, 0.06, 13.177388),
                (274.462977, 0.06, 14.087468),
                (271.187456, 0.06, 15.403268),
                (273.423991, 0.06, 20.970845),
                (276.699511, 0.06, 19.655045),
                (271.188198, 0.06, 15.40297),
                (266.972776, 0.06, 17.09503),
                (269.207828, 0.06, 22.663203),
                (273.423249, 0.06, 20.971143),
                (267.106344, 0.06, 17.045069),
                (260.613605, 0.06, 19.299295),
                (262.581522, 0.06, 24.96739),
                (269.07426, 0.06, 22.713164),
                (259.810224, 0.06, 19.723899),
                (254.065697, 0.06, 23.985222),
                (257.640375, 0.06, 28.804109),
                (263.384902, 0.06, 24.542786),
                (253.501179, 0.06, 24.532203),
                (245.758478, 0.06, 34.309432),
                (250.462192, 0.06, 38.034357),
                (258.204893, 0.06, 28.257128),
                (246.714756, 0.06, 33.516266),
                (242.728127, 0.06, 35.611309),
                (245.519283, 0.06, 40.922565),
                (249.505913, 0.06, 38.827523),
                (242.727503, 0.06, 35.611637),
                (236.22593, 0.06, 39.030275),
                (239.018335, 0.06, 44.340876),
                (245.519907, 0.06, 40.922237),
                (237.622133, 0.06, 38.685576),
                (236.123945, 0.06, 38.685576),
                (236.123945, 0.06, 44.685576),
                (237.622133, 0.06, 44.685576),
                (236.053507, 0.06, 38.686403),
                (232.735585, 0.06, 38.764327),
                (232.876461, 0.06, 44.762673),
                (236.194382, 0.06, 44.684748),
                (232.735239, 0.06, 38.764335),
                (225.565842, 0.06, 38.933541),
                (225.70741, 0.06, 44.931871),
                (232.876807, 0.06, 44.762664),
                (225.533606, 0.06, 38.934475),
                (211.051708, 0.06, 39.432076),
                (211.257747, 0.06, 45.428537),
                (225.739646, 0.06, 44.930937),
                (211.018499, 0.06, 39.433401),
                (199.532977, 0.06, 39.955493),
                (199.805434, 0.06, 45.949303),
                (211.290956, 0.06, 45.427212),
                (199.53337, 0.06, 39.955475),
                (189.046052, 0.06, 40.430811),
                (189.317722, 0.06, 46.424658),
                (199.805041, 0.06, 45.949321),
                (189.234687, 0.06, 40.428199),
                (174.752789, 0.06, 40.173276),
                (174.647188, 0.06, 46.172347),
                (189.129087, 0.06, 46.42727),
                (174.585098, 0.06, 40.175012),
                (161.601388, 0.06, 40.672613),
                (161.831169, 0.06, 46.668212),
                (174.814879, 0.06, 46.170611),
                (161.636186, 0.06, 40.671482),
                (106.324237, 0.06, 42.1487),
                (106.484422, 0.06, 48.146561),
                (161.796371, 0.06, 46.669343)
            ]
            int[] faceVertexCounts = [4, 4, 4, 4, 4, 4, 4, 4, 4, 4, 4, 4, 4, 4, 4, 4, 4, 4, 4, 4, 4, 4, 4, 4, 4, 4, 4, 4, 4, 4, 4, 4, 4, 4, 4, 4, 4, 4, 4, 4, 4, 4, 4, 4, 4, 4, 4]
            int[] faceVertexIndices = [0, 1, 2, 3, 4, 5, 6, 7, 8, 9, 10, 11, 12, 13, 14, 15, 16, 17, 18, 19, 20, 21, 22, 23, 24, 25, 26, 27, 28, 29, 30, 31, 32, 33, 34, 35, 36, 37, 38, 39, 40, 41, 42, 43, 44, 45, 46, 47, 48, 49, 50, 51, 52, 53, 54, 55, 56, 57, 58, 59, 60, 61, 62, 63, 64, 65, 66, 67, 68, 69, 70, 71, 72, 73, 74, 75, 76, 77, 78, 79, 80, 81, 82, 83, 84, 85, 86, 87, 88, 89, 90, 91, 92, 93, 94, 95, 96, 97, 98, 99, 100, 101, 102, 103, 104, 105, 106, 107, 108, 109, 110, 111, 112, 113, 114, 115, 116, 117, 118, 119, 120, 121, 122, 123, 124, 125, 126, 127, 128, 129, 130, 131, 132, 133, 134, 135, 136, 137, 138, 139, 140, 141, 142, 143, 144, 145, 146, 147, 148, 149, 150, 151, 152, 153, 154, 155, 156, 157, 158, 159, 160, 161, 162, 163, 164, 165, 166, 167, 168, 169, 170, 171, 172, 173, 174, 175, 176, 177, 178, 179, 180, 181, 182, 183, 184, 185, 186, 187]
            uniform token subdivisionScheme = "none"
        }
        def Mesh "road_4__16" (
            prepend apiSchemas = ["MaterialBindingAPI", "PhysicsCollisionAPI"]
            customData = {
                string sourceType = "official"
                string confidence = "medium"
                string displayName = "사당로16가길"
                int widthM = 8
            }
        )
        {
            rel material:binding = </sadang_317_6/Looks/Official_Road_Asphalt>
            bool physics:collisionEnabled = true
            point3f[] points = [(-168.542801, 0.06, 111.390739), (-164.628607, 0.06, 158.324915), (-156.656283, 0.06, 157.660043), (-160.570477, 0.06, 110.725867)]
            int[] faceVertexCounts = [4]
            int[] faceVertexIndices = [0, 1, 2, 3]
            uniform token subdivisionScheme = "none"
        }
        def Mesh "road_5__22" (
            prepend apiSchemas = ["MaterialBindingAPI", "PhysicsCollisionAPI"]
            customData = {
                string sourceType = "official"
                string confidence = "medium"
                string displayName = "사당로22나길"
                int widthM = 7
            }
        )
        {
            rel material:binding = </sadang_317_6/Looks/Official_Road_Asphalt>
            bool physics:collisionEnabled = true
            point3f[] points = [(-80.235918, 0.06, -193.596972), (-94.057942, 0.06, -210.592825), (-99.488723, 0.06, -206.176196), (-85.666699, 0.06, -189.180342)]
            int[] faceVertexCounts = [4]
            int[] faceVertexIndices = [0, 1, 2, 3]
            uniform token subdivisionScheme = "none"
        }
        def Mesh "road_6__16" (
            prepend apiSchemas = ["MaterialBindingAPI", "PhysicsCollisionAPI"]
            customData = {
                string sourceType = "official"
                string confidence = "medium"
                string displayName = "사당로16길"
                int widthM = 11
            }
        )
        {
            rel material:binding = </sadang_317_6/Looks/Official_Road_Asphalt>
            bool physics:collisionEnabled = true
            point3f[] points = [
                (-138.210948, 0.06, -194.36767),
                (-135.006097, 0.06, -202.245562),
                (-145.195218, 0.06, -206.390658),
                (-148.400069, 0.06, -198.512766),
                (-135.655803, 0.06, -201.078779),
                (-128.748766, 0.06, -210.556283),
                (-137.638475, 0.06, -217.034946),
                (-144.545512, 0.06, -207.557441),
                (-128.911321, 0.06, -210.344251),
                (-118.46022, 0.06, -223.311517),
                (-127.02482, 0.06, -230.214244),
                (-137.47592, 0.06, -217.246978),
                (-118.371462, 0.06, -223.424639),
                (-110.935289, 0.06, -233.161485),
                (-119.677404, 0.06, -239.837968),
                (-127.113577, 0.06, -230.101122),
                (-111.412154, 0.06, -232.615751),
                (-107.837173, 0.06, -236.200136),
                (-115.625558, 0.06, -243.968087),
                (-119.200539, 0.06, -240.383702),
                (-108.797939, 0.06, -235.431692),
                (-105.063952, 0.06, -237.786031),
                (-110.930804, 0.06, -247.090871),
                (-114.664791, 0.06, -244.736532),
                (-104.581292, 0.06, -238.127957),
                (-97.735208, 0.06, -243.55351),
                (-104.567379, 0.06, -252.174498),
                (-111.413464, 0.06, -246.748945),
                (-97.309968, 0.06, -243.927734),
                (-89.262506, 0.06, -251.781087),
                (-96.945156, 0.06, -259.653627),
                (-104.992619, 0.06, -251.800274)
            ]
            int[] faceVertexCounts = [4, 4, 4, 4, 4, 4, 4, 4]
            int[] faceVertexIndices = [0, 1, 2, 3, 4, 5, 6, 7, 8, 9, 10, 11, 12, 13, 14, 15, 16, 17, 18, 19, 20, 21, 22, 23, 24, 25, 26, 27, 28, 29, 30, 31]
            uniform token subdivisionScheme = "none"
        }
        def Mesh "road_7__20" (
            prepend apiSchemas = ["MaterialBindingAPI", "PhysicsCollisionAPI"]
            customData = {
                string sourceType = "official"
                string confidence = "medium"
                string displayName = "사당로20길"
                int widthM = 6
            }
        )
        {
            rel material:binding = </sadang_317_6/Looks/Official_Road_Asphalt>
            bool physics:collisionEnabled = true
            point3f[] points = [
                (199.510111, 0.06, 13.243667),
                (194.795588, 0.06, 13.304893),
                (194.873501, 0.06, 19.304387),
                (199.588024, 0.06, 19.243161),
                (194.770773, 0.06, 13.305317),
                (184.247236, 0.06, 13.52907),
                (184.37478, 0.06, 19.527714),
                (194.898317, 0.06, 19.303962),
                (184.30776, 0.06, 13.528394),
                (169.912432, 0.06, 13.543979),
                (169.918927, 0.06, 19.543975),
                (184.314256, 0.06, 19.52839),
                (169.77337, 0.06, 13.547354),
                (165.178985, 0.06, 13.765541),
                (165.463603, 0.06, 19.758786),
                (170.057989, 0.06, 19.5406),
                (165.2734, 0.06, 13.762546),
                (153.211923, 0.06, 13.955129),
                (153.307712, 0.06, 19.954364),
                (165.369188, 0.06, 19.761781),
                (153.212415, 0.06, 13.955121),
                (150.746941, 0.06, 13.994083),
                (150.841747, 0.06, 19.993334),
                (153.307221, 0.06, 19.954372),
                (150.79511, 0.06, 13.993709),
                (142.073639, 0.06, 13.991482),
                (142.072108, 0.06, 19.991482),
                (150.793578, 0.06, 19.993709)
            ]
            int[] faceVertexCounts = [4, 4, 4, 4, 4, 4, 4]
            int[] faceVertexIndices = [0, 1, 2, 3, 4, 5, 6, 7, 8, 9, 10, 11, 12, 13, 14, 15, 16, 17, 18, 19, 20, 21, 22, 23, 24, 25, 26, 27]
            uniform token subdivisionScheme = "none"
        }
        def Mesh "road_8__16" (
            prepend apiSchemas = ["MaterialBindingAPI", "PhysicsCollisionAPI"]
            customData = {
                string sourceType = "official"
                string confidence = "medium"
                string displayName = "사당로16가길"
                int widthM = 8
            }
        )
        {
            rel material:binding = </sadang_317_6/Looks/Official_Road_Asphalt>
            bool physics:collisionEnabled = true
            point3f[] points = [
                (-57.230988, 0.06, 67.044123),
                (-64.433069, 0.06, 93.64084),
                (-56.71117, 0.06, 95.73184),
                (-49.509089, 0.06, 69.135124),
                (-64.443832, 0.06, 93.68143),
                (-70.115924, 0.06, 115.53484),
                (-62.372499, 0.06, 117.54466),
                (-56.700407, 0.06, 95.69125),
                (-69.647539, 0.06, 114.437998),
                (-77.047494, 0.06, 126.420606),
                (-70.240839, 0.06, 130.62411),
                (-62.840884, 0.06, 118.641502)
            ]
            int[] faceVertexCounts = [4, 4, 4]
            int[] faceVertexIndices = [0, 1, 2, 3, 4, 5, 6, 7, 8, 9, 10, 11]
            uniform token subdivisionScheme = "none"
        }
        def Mesh "official_parcel_boundary_ribbon" (
            prepend apiSchemas = ["MaterialBindingAPI", "PhysicsCollisionAPI"]
            customData = {
                string role = "official cadastral parcel boundary visual guide"
                string sourceType = "official"
            }
        )
        {
            rel material:binding = </sadang_317_6/Looks/Official_Parcel_Boundary_Gold>
            bool physics:collisionEnabled = true
            point3f[] points = [
                (-1.321606, 0.22, 8.119028),
                (2.918549, 0.22, 5.265907),
                (2.444024, 0.22, 4.560693),
                (-1.796131, 0.22, 7.413814),
                (2.910898, 0.22, 5.270936),
                (7.854213, 0.22, 2.097216),
                (7.394991, 0.22, 1.381943),
                (2.451676, 0.22, 4.555663),
                (7.853207, 0.22, 2.09786),
                (7.992779, 0.22, 2.008804),
                (7.535568, 0.22, 1.292244),
                (7.395997, 0.22, 1.381299),
                (8.065202, 0.22, 1.950536),
                (9.283363, 0.22, 0.728247),
                (8.681307, 0.22, 0.128224),
                (7.463145, 0.22, 1.350512),
                (9.306341, 0.22, 0.153199),
                (4.92838, 0.22, -5.004233),
                (4.280369, 0.22, -4.454159),
                (8.658329, 0.22, 0.703273),
                (4.928494, 0.22, -5.004099),
                (0.19542, 0.22, -10.584541),
                (-0.452819, 0.22, -10.034735),
                (4.280255, 0.22, -4.454293),
                (-0.424703, 0.22, -10.614609),
                (-1.747101, 0.22, -9.331096),
                (-1.155095, 0.22, -8.721154),
                (0.167303, 0.22, -10.004667),
                (-1.73039, 0.22, -9.346471),
                (-6.724056, 0.22, -4.992768),
                (-6.165473, 0.22, -4.352077),
                (-1.171807, 0.22, -8.70578),
                (-6.725328, 0.22, -4.991655),
                (-9.942546, 0.22, -2.164141),
                (-9.38142, 0.22, -1.525676),
                (-6.164202, 0.22, -4.353191),
                (-9.98126, 0.22, -1.564396),
                (-8.7949, 0.22, -0.214091),
                (-8.156346, 0.22, -0.775116),
                (-9.342706, 0.22, -2.125421),
                (-8.801906, 0.22, -0.222272),
                (-2.703149, 0.22, 7.084743),
                (-2.050582, 0.22, 6.540081),
                (-8.149339, 0.22, -0.766934),
                (-2.699504, 0.22, 7.089052),
                (-1.881507, 0.22, 8.043061),
                (-1.236231, 0.22, 7.489781),
                (-2.054227, 0.22, 6.535772)
            ]
            int[] faceVertexCounts = [4, 4, 4, 4, 4, 4, 4, 4, 4, 4, 4, 4]
            int[] faceVertexIndices = [0, 1, 2, 3, 4, 5, 6, 7, 8, 9, 10, 11, 12, 13, 14, 15, 16, 17, 18, 19, 20, 21, 22, 23, 24, 25, 26, 27, 28, 29, 30, 31, 32, 33, 34, 35, 36, 37, 38, 39, 40, 41, 42, 43, 44, 45, 46, 47]
            uniform token subdivisionScheme = "none"
        }
        def Mesh "FloodScenario_Cloudburst_WaterReference" (
            prepend apiSchemas = ["MaterialBindingAPI"]
            customData = {
                string role = "hydrology result layer placeholder"
                string source = "GPU shallow-water runtime texture in browser MVP; export records the layer target for NVIDIA simulation replacement."
            }
        )
        {
            rel material:binding = </sadang_317_6/Looks/GPU_Flood_Water_Hazard>
            point3f[] points = [(-220, 0.12, -220), (220, 0.12, -220), (220, 0.12, 220), (-220, 0.12, 220)]
            int[] faceVertexCounts = [4]
            int[] faceVertexIndices = [0, 1, 2, 3]
            uniform token subdivisionScheme = "none"
        }
    }
}
